<?plantuml 1.2026.2beta2?><svg xmlns="http://www.w3.org/2000/svg" xmlns:xlink="http://www.w3.org/1999/xlink" contentStyleType="text/css" data-diagram-type="CLASS" height="907px" preserveAspectRatio="none" style="width:1763px;height:907px;background:#FFFFFF;" version="1.1" viewBox="0 0 1763 907" width="1763px" zoomAndPan="magnify"><title>API Scheduler Architecture</title><defs/><g><g class="title" data-source-line="1"><text fill="#000000" font-family="sans-serif" font-size="14" font-weight="bold" lengthAdjust="spacing" textLength="213.4316" x="767.7842" y="22.9951">API Scheduler Architecture</text></g><!--cluster Data Layer (SQLAlchemy Models)--><g class="cluster" data-qualified-name="Data Layer .SQLAlchemy Models." data-source-line="3" id="ent0002"><path d="M8.5,356.0769 L272.2324,356.0769 A3.75,3.75 0 0 1 274.7324,358.5769 L281.7324,378.3738 L606.5,378.3738 A2.5,2.5 0 0 1 609,380.8738 L609,898.4369 A2.5,2.5 0 0 1 606.5,900.9369 L8.5,900.9369 A2.5,2.5 0 0 1 6,898.4369 L6,358.5769 A2.5,2.5 0 0 1 8.5,356.0769" fill="none" style="stroke:#000000;stroke-width:1.5;"/><line style="stroke:#000000;stroke-width:1.5;" x1="6" x2="281.7324" y1="378.3738" y2="378.3738"/><text fill="#000000" font-family="sans-serif" font-size="14" font-weight="bold" lengthAdjust="spacing" textLength="262.7324" x="10" y="371.072">Data Layer (SQLAlchemy Models)</text></g><!--cluster Core Logic (Design Patterns)--><g class="cluster" data-qualified-name="Core Logic .Design Patterns." data-source-line="47" id="ent0012"><path d="M635.5,372.3769 L863.8975,372.3769 A3.75,3.75 0 0 1 866.3975,374.8769 L873.3975,394.6738 L1753.5,394.6738 A2.5,2.5 0 0 1 1756,397.1738 L1756,898.4369 A2.5,2.5 0 0 1 1753.5,900.9369 L635.5,900.9369 A2.5,2.5 0 0 1 633,898.4369 L633,374.8769 A2.5,2.5 0 0 1 635.5,372.3769" fill="none" style="stroke:#000000;stroke-width:1.5;"/><line style="stroke:#000000;stroke-width:1.5;" x1="633" x2="873.3975" y1="394.6738" y2="394.6738"/><text fill="#000000" font-family="sans-serif" font-size="14" font-weight="bold" lengthAdjust="spacing" textLength="227.3975" x="637" y="387.372">Core Logic (Design Patterns)</text></g><!--cluster Service Layer (main--><g class="cluster" data-qualified-name="Service Layer .main" data-source-line="85" id="ent0022"><path d="M383.5,43.2969 L541.542,43.2969 A3.75,3.75 0 0 1 544.042,45.7969 L551.042,65.5938 L807.5,65.5938 A2.5,2.5 0 0 1 810,68.0938 L810,304.5769 A2.5,2.5 0 0 1 807.5,307.0769 L383.5,307.0769 A2.5,2.5 0 0 1 381,304.5769 L381,45.7969 A2.5,2.5 0 0 1 383.5,43.2969" fill="none" style="stroke:#000000;stroke-width:1.5;"/><line style="stroke:#000000;stroke-width:1.5;" x1="381" x2="551.042" y1="65.5938" y2="65.5938"/><text fill="#000000" font-family="sans-serif" font-size="14" font-weight="bold" lengthAdjust="spacing" textLength="157.042" x="385" y="58.292">Service Layer (main</text></g><!--cluster py)--><g class="cluster" data-qualified-name="Service Layer .main.py." data-source-line="84" id="ent0020"><path d="M407.5,86.2969 L434.0459,86.2969 A3.75,3.75 0 0 1 436.5459,88.7969 L443.5459,108.5938 L783.5,108.5938 A2.5,2.5 0 0 1 786,111.0938 L786,280.5769 A2.5,2.5 0 0 1 783.5,283.0769 L407.5,283.0769 A2.5,2.5 0 0 1 405,280.5769 L405,88.7969 A2.5,2.5 0 0 1 407.5,86.2969" fill="none" style="stroke:#000000;stroke-width:1.5;"/><line style="stroke:#000000;stroke-width:1.5;" x1="405" x2="443.5459" y1="108.5938" y2="108.5938"/><text fill="#000000" font-family="sans-serif" font-size="14" font-weight="bold" lengthAdjust="spacing" textLength="25.5459" x="409" y="101.292">py)</text></g><!--class Target--><g class="entity" data-qualified-name="Data Layer .SQLAlchemy Models..Target" data-source-line="4" id="ent0003"><rect fill="#F1F1F1" height="129.4844" rx="2.5" ry="2.5" style="stroke:#181818;stroke-width:0.5;" width="170.9287" x="21.54" y="605.7069"/><ellipse cx="79.8164" cy="621.7069" fill="#ADD1B2" rx="11" ry="11" style="stroke:#181818;stroke-width:1;"/><path d="M82.7851,627.3475 Q82.207,627.6444 81.5664,627.785 Q80.9257,627.9413 80.2226,627.9413 Q77.7226,627.9413 76.3945,626.3006 Q75.082,624.6444 75.082,621.5194 Q75.082,618.3944 76.3945,616.7381 Q77.7226,615.0819 80.2226,615.0819 Q80.9257,615.0819 81.5664,615.2381 Q82.2226,615.3944 82.7851,615.6913 L82.7851,618.41 Q82.1601,617.8319 81.5664,617.5663 Q80.9726,617.285 80.3476,617.285 Q79.0039,617.285 78.3164,618.3631 Q77.6289,619.4256 77.6289,621.5194 Q77.6289,623.6131 78.3164,624.6913 Q79.0039,625.7538 80.3476,625.7538 Q80.9726,625.7538 81.5664,625.4881 Q82.1601,625.2069 82.7851,624.6288 L82.7851,627.3475 Z " fill="#000000"/><text fill="#000000" font-family="sans-serif" font-size="14" lengthAdjust="spacing" textLength="45.876" x="100.3164" y="626.5536">Target</text><line style="stroke:#181818;stroke-width:0.5;" x1="22.54" x2="191.4687" y1="637.7069" y2="637.7069"/><g data-visibility-modifier="PUBLIC_FIELD"><ellipse cx="32.54" cy="651.3553" fill="none" rx="3" ry="3" style="stroke:#038048;stroke-width:1;"/></g><text fill="#000000" font-family="sans-serif" font-size="14" lengthAdjust="spacing" textLength="72.3037" x="41.54" y="654.702">id: Integer</text><g data-visibility-modifier="PUBLIC_FIELD"><ellipse cx="32.54" cy="667.6522" fill="none" rx="3" ry="3" style="stroke:#038048;stroke-width:1;"/></g><text fill="#000000" font-family="sans-serif" font-size="14" lengthAdjust="spacing" textLength="69.4668" x="41.54" y="670.9989">url: String</text><g data-visibility-modifier="PUBLIC_FIELD"><ellipse cx="32.54" cy="683.9491" fill="none" rx="3" ry="3" style="stroke:#038048;stroke-width:1;"/></g><text fill="#000000" font-family="sans-serif" font-size="14" lengthAdjust="spacing" textLength="105.0137" x="41.54" y="687.2957">method: String</text><g data-visibility-modifier="PUBLIC_FIELD"><ellipse cx="32.54" cy="700.2459" fill="none" rx="3" ry="3" style="stroke:#038048;stroke-width:1;"/></g><text fill="#000000" font-family="sans-serif" font-size="14" lengthAdjust="spacing" textLength="100.29" x="41.54" y="703.5926">headers: JSON</text><g data-visibility-modifier="PUBLIC_FIELD"><ellipse cx="32.54" cy="716.5428" fill="none" rx="3" ry="3" style="stroke:#038048;stroke-width:1;"/></g><text fill="#000000" font-family="sans-serif" font-size="14" lengthAdjust="spacing" textLength="144.9287" x="41.54" y="719.8895">body_template: Text</text><line style="stroke:#181818;stroke-width:0.5;" x1="22.54" x2="191.4687" y1="727.1913" y2="727.1913"/></g><!--class Schedule--><g class="entity" data-qualified-name="Data Layer .SQLAlchemy Models..Schedule" data-source-line="12" id="ent0004"><rect fill="#F1F1F1" height="129.4844" rx="2.5" ry="2.5" style="stroke:#181818;stroke-width:0.5;" width="187.1299" x="243.44" y="391.0769"/><ellipse cx="300.5884" cy="407.0769" fill="#ADD1B2" rx="11" ry="11" style="stroke:#181818;stroke-width:1;"/><path d="M303.5572,412.7175 Q302.9791,413.0144 302.3384,413.155 Q301.6978,413.3113 300.9947,413.3113 Q298.4947,413.3113 297.1666,411.6706 Q295.8541,410.0144 295.8541,406.8894 Q295.8541,403.7644 297.1666,402.1081 Q298.4947,400.4519 300.9947,400.4519 Q301.6978,400.4519 302.3384,400.6081 Q302.9947,400.7644 303.5572,401.0613 L303.5572,403.78 Q302.9322,403.2019 302.3384,402.9363 Q301.7447,402.655 301.1197,402.655 Q299.7759,402.655 299.0884,403.7331 Q298.4009,404.7956 298.4009,406.8894 Q298.4009,408.9831 299.0884,410.0613 Q299.7759,411.1238 301.1197,411.1238 Q301.7447,411.1238 302.3384,410.8581 Q302.9322,410.5769 303.5572,409.9988 L303.5572,412.7175 Z " fill="#000000"/><text fill="#000000" font-family="sans-serif" font-size="14" lengthAdjust="spacing" textLength="64.333" x="321.0884" y="411.9236">Schedule</text><line style="stroke:#181818;stroke-width:0.5;" x1="244.44" x2="429.5699" y1="423.0769" y2="423.0769"/><g data-visibility-modifier="PUBLIC_FIELD"><ellipse cx="254.44" cy="436.7253" fill="none" rx="3" ry="3" style="stroke:#038048;stroke-width:1;"/></g><text fill="#000000" font-family="sans-serif" font-size="14" lengthAdjust="spacing" textLength="72.3037" x="263.44" y="440.072">id: Integer</text><g data-visibility-modifier="PUBLIC_FIELD"><ellipse cx="254.44" cy="453.0222" fill="none" rx="3" ry="3" style="stroke:#038048;stroke-width:1;"/></g><text fill="#000000" font-family="sans-serif" font-size="14" lengthAdjust="spacing" textLength="151.9629" x="263.44" y="456.3689">schedule_type: String</text><g data-visibility-modifier="PUBLIC_FIELD"><ellipse cx="254.44" cy="469.3191" fill="none" rx="3" ry="3" style="stroke:#038048;stroke-width:1;"/></g><text fill="#000000" font-family="sans-serif" font-size="14" lengthAdjust="spacing" textLength="156.2559" x="263.44" y="472.6657">schedule_config: JSON</text><g data-visibility-modifier="PUBLIC_FIELD"><ellipse cx="254.44" cy="485.6159" fill="none" rx="3" ry="3" style="stroke:#038048;stroke-width:1;"/></g><text fill="#000000" font-family="sans-serif" font-size="14" lengthAdjust="spacing" textLength="161.1299" x="263.44" y="488.9626">status: ScheduleStatus</text><g data-visibility-modifier="PUBLIC_FIELD"><ellipse cx="254.44" cy="501.9128" fill="none" rx="3" ry="3" style="stroke:#038048;stroke-width:1;"/></g><text fill="#000000" font-family="sans-serif" font-size="14" lengthAdjust="spacing" textLength="160.1523" x="263.44" y="505.2595">next_run_at: DateTime</text><line style="stroke:#181818;stroke-width:0.5;" x1="244.44" x2="429.5699" y1="512.5613" y2="512.5613"/></g><!--class Run--><g class="entity" data-qualified-name="Data Layer .SQLAlchemy Models..Run" data-source-line="20" id="ent0005"><rect fill="#F1F1F1" height="145.7813" rx="2.5" ry="2.5" style="stroke:#181818;stroke-width:0.5;" width="189.4609" x="403.27" y="597.5569"/><ellipse cx="480.0137" cy="613.5569" fill="#ADD1B2" rx="11" ry="11" style="stroke:#181818;stroke-width:1;"/><path d="M482.9824,619.1975 Q482.4043,619.4944 481.7637,619.635 Q481.123,619.7913 480.4199,619.7913 Q477.9199,619.7913 476.5918,618.1506 Q475.2793,616.4944 475.2793,613.3694 Q475.2793,610.2444 476.5918,608.5881 Q477.9199,606.9319 480.4199,606.9319 Q481.123,606.9319 481.7637,607.0881 Q482.4199,607.2444 482.9824,607.5413 L482.9824,610.26 Q482.3574,609.6819 481.7637,609.4163 Q481.1699,609.135 480.5449,609.135 Q479.2012,609.135 478.5137,610.2131 Q477.8262,611.2756 477.8262,613.3694 Q477.8262,615.4631 478.5137,616.5413 Q479.2012,617.6038 480.5449,617.6038 Q481.1699,617.6038 481.7637,617.3381 Q482.3574,617.0569 482.9824,616.4788 L482.9824,619.1975 Z " fill="#000000"/><text fill="#000000" font-family="sans-serif" font-size="14" lengthAdjust="spacing" textLength="27.4736" x="500.5137" y="618.4036">Run</text><line style="stroke:#181818;stroke-width:0.5;" x1="404.27" x2="591.7309" y1="629.5569" y2="629.5569"/><g data-visibility-modifier="PUBLIC_FIELD"><ellipse cx="414.27" cy="643.2053" fill="none" rx="3" ry="3" style="stroke:#038048;stroke-width:1;"/></g><text fill="#000000" font-family="sans-serif" font-size="14" lengthAdjust="spacing" textLength="72.3037" x="423.27" y="646.552">id: Integer</text><g data-visibility-modifier="PUBLIC_FIELD"><ellipse cx="414.27" cy="659.5022" fill="none" rx="3" ry="3" style="stroke:#038048;stroke-width:1;"/></g><text fill="#000000" font-family="sans-serif" font-size="14" lengthAdjust="spacing" textLength="163.4609" x="423.27" y="662.8489">executed_at: DateTime</text><g data-visibility-modifier="PUBLIC_FIELD"><ellipse cx="414.27" cy="675.7991" fill="none" rx="3" ry="3" style="stroke:#038048;stroke-width:1;"/></g><text fill="#000000" font-family="sans-serif" font-size="14" lengthAdjust="spacing" textLength="124.2705" x="423.27" y="679.1457">status: RunStatus</text><g data-visibility-modifier="PUBLIC_FIELD"><ellipse cx="414.27" cy="692.0959" fill="none" rx="3" ry="3" style="stroke:#038048;stroke-width:1;"/></g><text fill="#000000" font-family="sans-serif" font-size="14" lengthAdjust="spacing" textLength="143.3086" x="423.27" y="695.4426">status_code: Integer</text><g data-visibility-modifier="PUBLIC_FIELD"><ellipse cx="414.27" cy="708.3928" fill="none" rx="3" ry="3" style="stroke:#038048;stroke-width:1;"/></g><text fill="#000000" font-family="sans-serif" font-size="14" lengthAdjust="spacing" textLength="138.8857" x="423.27" y="711.7395">latency_ms: Integer</text><g data-visibility-modifier="PUBLIC_FIELD"><ellipse cx="414.27" cy="724.6897" fill="none" rx="3" ry="3" style="stroke:#038048;stroke-width:1;"/></g><text fill="#000000" font-family="sans-serif" font-size="14" lengthAdjust="spacing" textLength="145.626" x="423.27" y="728.0364">response_body: Text</text><line style="stroke:#181818;stroke-width:0.5;" x1="404.27" x2="591.7309" y1="735.3381" y2="735.3381"/></g><!--class ScheduleStatus--><g class="entity" data-qualified-name="Data Layer .SQLAlchemy Models..ScheduleStatus" data-source-line="29" id="ent0006"><rect fill="#F1F1F1" height="96.8906" rx="2.5" ry="2.5" style="stroke:#181818;stroke-width:0.5;" width="140.9443" x="227.53" y="622.0069"/><ellipse cx="242.53" cy="638.0069" fill="#EB937F" rx="11" ry="11" style="stroke:#181818;stroke-width:1;"/><path d="M246.6394,644.0069 L238.9206,644.0069 L238.9206,631.6162 L246.6394,631.6162 L246.6394,633.7725 L241.3738,633.7725 L241.3738,636.4444 L246.1394,636.4444 L246.1394,638.6006 L241.3738,638.6006 L241.3738,641.8506 L246.6394,641.8506 L246.6394,644.0069 Z " fill="#000000"/><text fill="#000000" font-family="sans-serif" font-size="14" lengthAdjust="spacing" textLength="108.9443" x="256.53" y="642.8536">ScheduleStatus</text><line style="stroke:#181818;stroke-width:0.5;" x1="228.53" x2="367.4743" y1="654.0069" y2="654.0069"/><text fill="#000000" font-family="sans-serif" font-size="14" lengthAdjust="spacing" textLength="50.4561" x="233.53" y="671.002">ACTIVE</text><text fill="#000000" font-family="sans-serif" font-size="14" lengthAdjust="spacing" textLength="56.7793" x="233.53" y="687.2989">PAUSED</text><text fill="#000000" font-family="sans-serif" font-size="14" lengthAdjust="spacing" textLength="86.1396" x="233.53" y="703.5957">COMPLETED</text><line style="stroke:#181818;stroke-width:0.5;" x1="228.53" x2="367.4743" y1="710.8975" y2="710.8975"/></g><!--class RunStatus--><g class="entity" data-qualified-name="Data Layer .SQLAlchemy Models..RunStatus" data-source-line="35" id="ent0007"><rect fill="#F1F1F1" height="80.5938" rx="2.5" ry="2.5" style="stroke:#181818;stroke-width:0.5;" width="104.085" x="445.96" y="804.3469"/><ellipse cx="460.96" cy="820.3469" fill="#EB937F" rx="11" ry="11" style="stroke:#181818;stroke-width:1;"/><path d="M465.0694,826.3469 L457.3506,826.3469 L457.3506,813.9563 L465.0694,813.9563 L465.0694,816.1125 L459.8038,816.1125 L459.8038,818.7844 L464.5694,818.7844 L464.5694,820.9406 L459.8038,820.9406 L459.8038,824.1906 L465.0694,824.1906 L465.0694,826.3469 Z " fill="#000000"/><text fill="#000000" font-family="sans-serif" font-size="14" lengthAdjust="spacing" textLength="72.085" x="474.96" y="825.1936">RunStatus</text><line style="stroke:#181818;stroke-width:0.5;" x1="446.96" x2="549.045" y1="836.3469" y2="836.3469"/><text fill="#000000" font-family="sans-serif" font-size="14" lengthAdjust="spacing" textLength="65.3037" x="451.96" y="853.342">SUCCESS</text><text fill="#000000" font-family="sans-serif" font-size="14" lengthAdjust="spacing" textLength="58.3789" x="451.96" y="869.6389">FAILURE</text><line style="stroke:#181818;stroke-width:0.5;" x1="446.96" x2="549.045" y1="876.9406" y2="876.9406"/></g><!--class SchedulingStrategy--><g class="entity" data-qualified-name="Core Logic .Design Patterns..SchedulingStrategy" data-source-line="50" id="ent0013"><rect fill="#F1F1F1" height="64.2969" rx="2.5" ry="2.5" style="stroke:#181818;stroke-width:0.5;" width="656.8682" x="958.57" y="638.3069"/><ellipse cx="1214.0768" cy="654.3069" fill="#B4A7E5" rx="11" ry="11" style="stroke:#181818;stroke-width:1;"/><path d="M1209.9987,650.0725 L1209.9987,647.9163 L1217.3893,647.9163 L1217.3893,650.0725 L1214.9206,650.0725 L1214.9206,658.1506 L1217.3893,658.1506 L1217.3893,660.3069 L1209.9987,660.3069 L1209.9987,658.1506 L1212.4675,658.1506 L1212.4675,650.0725 L1209.9987,650.0725 Z " fill="#000000"/><text fill="#000000" font-family="sans-serif" font-size="14" font-style="italic" lengthAdjust="spacing" textLength="137.3545" x="1234.5768" y="659.1536">SchedulingStrategy</text><line style="stroke:#181818;stroke-width:0.5;" x1="959.57" x2="1614.4382" y1="670.3069" y2="670.3069"/><line style="stroke:#181818;stroke-width:0.5;" x1="959.57" x2="1614.4382" y1="678.3069" y2="678.3069"/><g data-visibility-modifier="PUBLIC_METHOD"><ellipse cx="969.57" cy="691.9553" fill="#84BE84" rx="3" ry="3" style="stroke:#038048;stroke-width:1;"/></g><text fill="#000000" font-family="sans-serif" font-size="14" lengthAdjust="spacing" textLength="630.8682" x="978.57" y="695.302">calculate_next_run(schedule: Schedule, last_run_time: DateTime, db: Session) : DateTime</text></g><!--class IntervalStrategy--><g class="entity" data-qualified-name="Core Logic .Design Patterns..IntervalStrategy" data-source-line="54" id="ent0014"><rect fill="#F1F1F1" height="64.2969" rx="2.5" ry="2.5" style="stroke:#181818;stroke-width:0.5;" width="404.834" x="895.58" y="812.4869"/><ellipse cx="1036.9472" cy="828.4869" fill="#ADD1B2" rx="11" ry="11" style="stroke:#181818;stroke-width:1;"/><path d="M1039.9159,834.1275 Q1039.3378,834.4244 1038.6972,834.565 Q1038.0566,834.7212 1037.3534,834.7212 Q1034.8534,834.7212 1033.5253,833.0806 Q1032.2128,831.4244 1032.2128,828.2994 Q1032.2128,825.1744 1033.5253,823.5181 Q1034.8534,821.8619 1037.3534,821.8619 Q1038.0566,821.8619 1038.6972,822.0181 Q1039.3534,822.1744 1039.9159,822.4712 L1039.9159,825.19 Q1039.2909,824.6119 1038.6972,824.3462 Q1038.1034,824.065 1037.4784,824.065 Q1036.1347,824.065 1035.4472,825.1431 Q1034.7597,826.2056 1034.7597,828.2994 Q1034.7597,830.3931 1035.4472,831.4712 Q1036.1347,832.5337 1037.4784,832.5337 Q1038.1034,832.5337 1038.6972,832.2681 Q1039.2909,831.9869 1039.9159,831.4087 L1039.9159,834.1275 Z " fill="#000000"/><text fill="#000000" font-family="sans-serif" font-size="14" lengthAdjust="spacing" textLength="113.5996" x="1057.4472" y="833.3336">IntervalStrategy</text><line style="stroke:#181818;stroke-width:0.5;" x1="896.58" x2="1299.414" y1="844.4869" y2="844.4869"/><line style="stroke:#181818;stroke-width:0.5;" x1="896.58" x2="1299.414" y1="852.4869" y2="852.4869"/><g data-visibility-modifier="PUBLIC_METHOD"><ellipse cx="906.58" cy="866.1353" fill="#84BE84" rx="3" ry="3" style="stroke:#038048;stroke-width:1;"/></g><text fill="#000000" font-family="sans-serif" font-size="14" lengthAdjust="spacing" textLength="378.834" x="915.58" y="869.482">calculate_next_run(schedule, last_run, db) : DateTime</text></g><!--class WindowStrategy--><g class="entity" data-qualified-name="Core Logic .Design Patterns..WindowStrategy" data-source-line="58" id="ent0015"><rect fill="#F1F1F1" height="64.2969" rx="2.5" ry="2.5" style="stroke:#181818;stroke-width:0.5;" width="404.834" x="1335.58" y="812.4869"/><ellipse cx="1476.0004" cy="828.4869" fill="#ADD1B2" rx="11" ry="11" style="stroke:#181818;stroke-width:1;"/><path d="M1478.9692,834.1275 Q1478.391,834.4244 1477.7504,834.565 Q1477.1098,834.7212 1476.4067,834.7212 Q1473.9067,834.7212 1472.5785,833.0806 Q1471.266,831.4244 1471.266,828.2994 Q1471.266,825.1744 1472.5785,823.5181 Q1473.9067,821.8619 1476.4067,821.8619 Q1477.1098,821.8619 1477.7504,822.0181 Q1478.4067,822.1744 1478.9692,822.4712 L1478.9692,825.19 Q1478.3442,824.6119 1477.7504,824.3462 Q1477.1567,824.065 1476.5317,824.065 Q1475.1879,824.065 1474.5004,825.1431 Q1473.8129,826.2056 1473.8129,828.2994 Q1473.8129,830.3931 1474.5004,831.4712 Q1475.1879,832.5337 1476.5317,832.5337 Q1477.1567,832.5337 1477.7504,832.2681 Q1478.3442,831.9869 1478.9692,831.4087 L1478.9692,834.1275 Z " fill="#000000"/><text fill="#000000" font-family="sans-serif" font-size="14" lengthAdjust="spacing" textLength="115.4932" x="1496.5004" y="833.3336">WindowStrategy</text><line style="stroke:#181818;stroke-width:0.5;" x1="1336.58" x2="1739.414" y1="844.4869" y2="844.4869"/><line style="stroke:#181818;stroke-width:0.5;" x1="1336.58" x2="1739.414" y1="852.4869" y2="852.4869"/><g data-visibility-modifier="PUBLIC_METHOD"><ellipse cx="1346.58" cy="866.1353" fill="#84BE84" rx="3" ry="3" style="stroke:#038048;stroke-width:1;"/></g><text fill="#000000" font-family="sans-serif" font-size="14" lengthAdjust="spacing" textLength="378.834" x="1355.58" y="869.482">calculate_next_run(schedule, last_run, db) : DateTime</text></g><!--class ScheduleContext--><g class="entity" data-qualified-name="Core Logic .Design Patterns..ScheduleContext" data-source-line="62" id="ent0016"><rect fill="#F1F1F1" height="80.5938" rx="2.5" ry="2.5" style="stroke:#181818;stroke-width:0.5;" width="494.7676" x="1039.62" y="415.5269"/><ellipse cx="1223.0419" cy="431.5269" fill="#ADD1B2" rx="11" ry="11" style="stroke:#181818;stroke-width:1;"/><path d="M1226.0106,437.1675 Q1225.4325,437.4644 1224.7919,437.605 Q1224.1513,437.7612 1223.4481,437.7612 Q1220.9481,437.7612 1219.62,436.1206 Q1218.3075,434.4644 1218.3075,431.3394 Q1218.3075,428.2144 1219.62,426.5581 Q1220.9481,424.9019 1223.4481,424.9019 Q1224.1513,424.9019 1224.7919,425.0581 Q1225.4481,425.2144 1226.0106,425.5112 L1226.0106,428.23 Q1225.3856,427.6519 1224.7919,427.3862 Q1224.1981,427.105 1223.5731,427.105 Q1222.2294,427.105 1221.5419,428.1831 Q1220.8544,429.2456 1220.8544,431.3394 Q1220.8544,433.4331 1221.5419,434.5112 Q1222.2294,435.5737 1223.5731,435.5737 Q1224.1981,435.5737 1224.7919,435.3081 Q1225.3856,435.0269 1226.0106,434.4487 L1226.0106,437.1675 Z " fill="#000000"/><text fill="#000000" font-family="sans-serif" font-size="14" lengthAdjust="spacing" textLength="119.4238" x="1243.5419" y="436.3736">ScheduleContext</text><line style="stroke:#181818;stroke-width:0.5;" x1="1040.62" x2="1533.3876" y1="447.5269" y2="447.5269"/><g data-visibility-modifier="PRIVATE_FIELD"><rect fill="none" height="6" style="stroke:#C82930;stroke-width:1;" width="6" x="1047.62" y="458.1753"/></g><text fill="#000000" font-family="sans-serif" font-size="14" lengthAdjust="spacing" textLength="115.6162" x="1059.62" y="464.522">_strategies: Map</text><line style="stroke:#181818;stroke-width:0.5;" x1="1040.62" x2="1533.3876" y1="471.8237" y2="471.8237"/><g data-visibility-modifier="PUBLIC_METHOD"><ellipse cx="1050.62" cy="485.4722" fill="#84BE84" rx="3" ry="3" style="stroke:#038048;stroke-width:1;"/></g><text fill="#000000" font-family="sans-serif" font-size="14" lengthAdjust="spacing" textLength="468.7676" x="1059.62" y="488.8189">get_next_run(schedule: Schedule, db_session: Session) : DateTime</text></g><!--class JobObserver--><g class="entity" data-qualified-name="Core Logic .Design Patterns..JobObserver" data-source-line="68" id="ent0017"><rect fill="#F1F1F1" height="64.2969" rx="2.5" ry="2.5" style="stroke:#181818;stroke-width:0.5;" width="186.8975" x="715.55" y="638.3069"/><ellipse cx="761.8464" cy="654.3069" fill="#B4A7E5" rx="11" ry="11" style="stroke:#181818;stroke-width:1;"/><path d="M757.7683,650.0725 L757.7683,647.9163 L765.1589,647.9163 L765.1589,650.0725 L762.6901,650.0725 L762.6901,658.1506 L765.1589,658.1506 L765.1589,660.3069 L757.7683,660.3069 L757.7683,658.1506 L760.237,658.1506 L760.237,650.0725 L757.7683,650.0725 Z " fill="#000000"/><text fill="#000000" font-family="sans-serif" font-size="14" font-style="italic" lengthAdjust="spacing" textLength="85.8047" x="782.3464" y="659.1536">JobObserver</text><line style="stroke:#181818;stroke-width:0.5;" x1="716.55" x2="901.4475" y1="670.3069" y2="670.3069"/><line style="stroke:#181818;stroke-width:0.5;" x1="716.55" x2="901.4475" y1="678.3069" y2="678.3069"/><g data-visibility-modifier="PUBLIC_METHOD"><ellipse cx="726.55" cy="691.9553" fill="#84BE84" rx="3" ry="3" style="stroke:#038048;stroke-width:1;"/></g><text fill="#000000" font-family="sans-serif" font-size="14" lengthAdjust="spacing" textLength="160.8975" x="735.55" y="695.302">on_complete(run: Run)</text></g><!--class DatabaseLoggerObserver--><g class="entity" data-qualified-name="Core Logic .Design Patterns..DatabaseLoggerObserver" data-source-line="72" id="ent0018"><rect fill="#F1F1F1" height="80.5938" rx="2.5" ry="2.5" style="stroke:#181818;stroke-width:0.5;" width="211.5322" x="649.23" y="804.3469"/><ellipse cx="664.23" cy="820.3469" fill="#ADD1B2" rx="11" ry="11" style="stroke:#181818;stroke-width:1;"/><path d="M667.1988,825.9875 Q666.6206,826.2844 665.98,826.425 Q665.3394,826.5813 664.6363,826.5813 Q662.1363,826.5813 660.8081,824.9406 Q659.4956,823.2844 659.4956,820.1594 Q659.4956,817.0344 660.8081,815.3781 Q662.1363,813.7219 664.6363,813.7219 Q665.3394,813.7219 665.98,813.8781 Q666.6363,814.0344 667.1988,814.3313 L667.1988,817.05 Q666.5738,816.4719 665.98,816.2063 Q665.3863,815.925 664.7613,815.925 Q663.4175,815.925 662.73,817.0031 Q662.0425,818.0656 662.0425,820.1594 Q662.0425,822.2531 662.73,823.3313 Q663.4175,824.3938 664.7613,824.3938 Q665.3863,824.3938 665.98,824.1281 Q666.5738,823.8469 667.1988,823.2688 L667.1988,825.9875 Z " fill="#000000"/><text fill="#000000" font-family="sans-serif" font-size="14" lengthAdjust="spacing" textLength="179.5322" x="678.23" y="825.1936">DatabaseLoggerObserver</text><line style="stroke:#181818;stroke-width:0.5;" x1="650.23" x2="859.7622" y1="836.3469" y2="836.3469"/><g data-visibility-modifier="PRIVATE_FIELD"><rect fill="none" height="6" style="stroke:#C82930;stroke-width:1;" width="6" x="657.23" y="846.9953"/></g><text fill="#000000" font-family="sans-serif" font-size="14" lengthAdjust="spacing" textLength="80.3564" x="669.23" y="853.342">db: Session</text><line style="stroke:#181818;stroke-width:0.5;" x1="650.23" x2="859.7622" y1="860.6438" y2="860.6438"/><g data-visibility-modifier="PUBLIC_METHOD"><ellipse cx="660.23" cy="874.2922" fill="#84BE84" rx="3" ry="3" style="stroke:#038048;stroke-width:1;"/></g><text fill="#000000" font-family="sans-serif" font-size="14" lengthAdjust="spacing" textLength="160.8975" x="669.23" y="877.6389">on_complete(run: Run)</text></g><!--class JobExecutor--><g class="entity" data-qualified-name="Core Logic .Design Patterns..JobExecutor" data-source-line="77" id="ent0019"><rect fill="#F1F1F1" height="96.8906" rx="2.5" ry="2.5" style="stroke:#181818;stroke-width:0.5;" width="355.9365" x="649.03" y="407.3769"/><ellipse cx="780.8952" cy="423.3769" fill="#ADD1B2" rx="11" ry="11" style="stroke:#181818;stroke-width:1;"/><path d="M783.864,429.0175 Q783.2859,429.3144 782.6452,429.455 Q782.0046,429.6113 781.3015,429.6113 Q778.8015,429.6113 777.4734,427.9706 Q776.1609,426.3144 776.1609,423.1894 Q776.1609,420.0644 777.4734,418.4081 Q778.8015,416.7519 781.3015,416.7519 Q782.0046,416.7519 782.6452,416.9081 Q783.3015,417.0644 783.864,417.3613 L783.864,420.08 Q783.239,419.5019 782.6452,419.2363 Q782.0515,418.955 781.4265,418.955 Q780.0827,418.955 779.3952,420.0331 Q778.7077,421.0956 778.7077,423.1894 Q778.7077,425.2831 779.3952,426.3613 Q780.0827,427.4238 781.4265,427.4238 Q782.0515,427.4238 782.6452,427.1581 Q783.239,426.8769 783.864,426.2988 L783.864,429.0175 Z " fill="#000000"/><text fill="#000000" font-family="sans-serif" font-size="14" lengthAdjust="spacing" textLength="83.7061" x="801.3952" y="428.2236">JobExecutor</text><line style="stroke:#181818;stroke-width:0.5;" x1="650.03" x2="1003.9665" y1="439.3769" y2="439.3769"/><g data-visibility-modifier="PRIVATE_FIELD"><rect fill="none" height="6" style="stroke:#C82930;stroke-width:1;" width="6" x="657.03" y="450.0253"/></g><text fill="#000000" font-family="sans-serif" font-size="14" lengthAdjust="spacing" textLength="211.9688" x="669.03" y="456.372">observers: List&lt;JobObserver&gt;</text><line style="stroke:#181818;stroke-width:0.5;" x1="650.03" x2="1003.9665" y1="463.6738" y2="463.6738"/><g data-visibility-modifier="PUBLIC_METHOD"><ellipse cx="660.03" cy="477.3222" fill="#84BE84" rx="3" ry="3" style="stroke:#038048;stroke-width:1;"/></g><text fill="#000000" font-family="sans-serif" font-size="14" lengthAdjust="spacing" textLength="225.7637" x="669.03" y="480.6689">add_observer(obs: JobObserver)</text><g data-visibility-modifier="PUBLIC_METHOD"><ellipse cx="660.03" cy="493.6191" fill="#84BE84" rx="3" ry="3" style="stroke:#038048;stroke-width:1;"/></g><text fill="#000000" font-family="sans-serif" font-size="14" lengthAdjust="spacing" textLength="329.9365" x="669.03" y="496.9657">execute(schedule: Schedule, db_session) : Run</text></g><!--class Engine--><g class="entity" data-qualified-name="Service Layer .main.py..Engine" data-source-line="85" id="ent0021"><rect fill="#F1F1F1" height="64.2969" rx="2.5" ry="2.5" style="stroke:#181818;stroke-width:0.5;" width="154.5205" x="615.74" y="162.0369"/><ellipse cx="630.74" cy="178.0369" fill="#ADD1B2" rx="11" ry="11" style="stroke:#181818;stroke-width:1;"/><path d="M633.7088,183.6775 Q633.1306,183.9744 632.49,184.115 Q631.8494,184.2713 631.1463,184.2713 Q628.6463,184.2713 627.3181,182.6306 Q626.0056,180.9744 626.0056,177.8494 Q626.0056,174.7244 627.3181,173.0681 Q628.6463,171.4119 631.1463,171.4119 Q631.8494,171.4119 632.49,171.5681 Q633.1463,171.7244 633.7088,172.0213 L633.7088,174.74 Q633.0838,174.1619 632.49,173.8963 Q631.8963,173.615 631.2713,173.615 Q629.9275,173.615 629.24,174.6931 Q628.5525,175.7556 628.5525,177.8494 Q628.5525,179.9431 629.24,181.0213 Q629.9275,182.0838 631.2713,182.0838 Q631.8963,182.0838 632.49,181.8181 Q633.0838,181.5369 633.7088,180.9588 L633.7088,183.6775 Z " fill="#000000"/><text fill="#000000" font-family="sans-serif" font-size="14" lengthAdjust="spacing" textLength="122.5205" x="644.74" y="182.8836">Scheduler Engine</text><line style="stroke:#181818;stroke-width:0.5;" x1="616.74" x2="769.2605" y1="194.0369" y2="194.0369"/><line style="stroke:#181818;stroke-width:0.5;" x1="616.74" x2="769.2605" y1="202.0369" y2="202.0369"/><g data-visibility-modifier="PUBLIC_METHOD"><ellipse cx="626.74" cy="215.6853" fill="#84BE84" rx="3" ry="3" style="stroke:#038048;stroke-width:1;"/></g><text fill="#000000" font-family="sans-serif" font-size="14" lengthAdjust="spacing" textLength="109.9219" x="635.74" y="219.032">run_scheduler()</text></g><!--class API--><g class="entity" data-qualified-name="Service Layer .main.py..API" data-source-line="89" id="ent0023"><rect fill="#F1F1F1" height="145.7813" rx="2.5" ry="2.5" style="stroke:#181818;stroke-width:0.5;" width="159.4512" x="421.27" y="121.2969"/><ellipse cx="450.3321" cy="137.2969" fill="#ADD1B2" rx="11" ry="11" style="stroke:#181818;stroke-width:1;"/><path d="M453.3008,142.9375 Q452.7227,143.2344 452.0821,143.375 Q451.4414,143.5313 450.7383,143.5313 Q448.2383,143.5313 446.9102,141.8906 Q445.5977,140.2344 445.5977,137.1094 Q445.5977,133.9844 446.9102,132.3281 Q448.2383,130.6719 450.7383,130.6719 Q451.4414,130.6719 452.0821,130.8281 Q452.7383,130.9844 453.3008,131.2813 L453.3008,134 Q452.6758,133.4219 452.0821,133.1563 Q451.4883,132.875 450.8633,132.875 Q449.5196,132.875 448.8321,133.9531 Q448.1446,135.0156 448.1446,137.1094 Q448.1446,139.2031 448.8321,140.2813 Q449.5196,141.3438 450.8633,141.3438 Q451.4883,141.3438 452.0821,141.0781 Q452.6758,140.7969 453.3008,140.2188 L453.3008,142.9375 Z " fill="#000000"/><text fill="#000000" font-family="sans-serif" font-size="14" lengthAdjust="spacing" textLength="96.2021" x="467.457" y="142.1436">API Endpoints</text><line style="stroke:#181818;stroke-width:0.5;" x1="422.27" x2="579.7212" y1="153.2969" y2="153.2969"/><line style="stroke:#181818;stroke-width:0.5;" x1="422.27" x2="579.7212" y1="161.2969" y2="161.2969"/><g data-visibility-modifier="PUBLIC_METHOD"><ellipse cx="432.27" cy="174.9453" fill="#84BE84" rx="3" ry="3" style="stroke:#038048;stroke-width:1;"/></g><text fill="#000000" font-family="sans-serif" font-size="14" lengthAdjust="spacing" textLength="105.4854" x="441.27" y="178.292">create_target()</text><g data-visibility-modifier="PUBLIC_METHOD"><ellipse cx="432.27" cy="191.2422" fill="#84BE84" rx="3" ry="3" style="stroke:#038048;stroke-width:1;"/></g><text fill="#000000" font-family="sans-serif" font-size="14" lengthAdjust="spacing" textLength="125.4121" x="441.27" y="194.5889">create_schedule()</text><g data-visibility-modifier="PUBLIC_METHOD"><ellipse cx="432.27" cy="207.5391" fill="#84BE84" rx="3" ry="3" style="stroke:#038048;stroke-width:1;"/></g><text fill="#000000" font-family="sans-serif" font-size="14" lengthAdjust="spacing" textLength="122.9102" x="441.27" y="210.8857">pause_schedule()</text><g data-visibility-modifier="PUBLIC_METHOD"><ellipse cx="432.27" cy="223.8359" fill="#84BE84" rx="3" ry="3" style="stroke:#038048;stroke-width:1;"/></g><text fill="#000000" font-family="sans-serif" font-size="14" lengthAdjust="spacing" textLength="133.4512" x="441.27" y="227.1826">resume_schedule()</text><g data-visibility-modifier="PUBLIC_METHOD"><ellipse cx="432.27" cy="240.1328" fill="#84BE84" rx="3" ry="3" style="stroke:#038048;stroke-width:1;"/></g><text fill="#000000" font-family="sans-serif" font-size="14" lengthAdjust="spacing" textLength="69.2822" x="441.27" y="243.4795">list_runs()</text><g data-visibility-modifier="PUBLIC_METHOD"><ellipse cx="432.27" cy="256.4297" fill="#84BE84" rx="3" ry="3" style="stroke:#038048;stroke-width:1;"/></g><text fill="#000000" font-family="sans-serif" font-size="14" lengthAdjust="spacing" textLength="93.29" x="441.27" y="259.7764">get_metrics()</text></g><!--reverse link Schedule to Target--><g class="link" data-entity-1="ent0004" data-entity-2="ent0003" data-link-type="composition" data-source-line="41" id="lnk8"><path codeLine="41" d="M250.16,528.8909 C238.87,538.6209 236.59,540.8369 226,550.5569 C207.08,567.9469 187.1,587.4369 169.03,605.5169" fill="none" id="Schedule-backto-Target" style="stroke:#181818;stroke-width:1;"/><polygon fill="#181818" points="259.25,521.0569,252.0937,521.9439,250.16,528.8909,257.3163,528.0039,259.25,521.0569" style="stroke:#181818;stroke-width:1;"/><polygon fill="#000000" points="227.365,562.5565,235.9588,558.4824,231.9228,554.2092,227.365,562.5565" style="stroke:#000000;stroke-width:1;"/><text fill="#000000" font-family="sans-serif" font-size="13" lengthAdjust="spacing" textLength="68.2627" x="240" y="563.6238">belongs to</text><text fill="#000000" font-family="sans-serif" font-size="13" lengthAdjust="spacing" textLength="8.271" x="242.833" y="540.6317">1</text><text fill="#000000" font-family="sans-serif" font-size="13" lengthAdjust="spacing" textLength="8.271" x="167.3914" y="594.6688">1</text></g><!--reverse link Schedule to Run--><g class="link" data-entity-1="ent0004" data-entity-2="ent0005" data-link-type="composition" data-source-line="42" id="lnk9"><path codeLine="42" d="M367.2147,531.7881 C374.7647,547.6981 378.69,553.3969 389,567.5569 C396.39,577.7169 404.9,587.6869 413.82,597.1669" fill="none" id="Schedule-backto-Run" style="stroke:#181818;stroke-width:1;"/><polygon fill="#181818" points="362.07,520.9469,361.0286,528.0824,367.2147,531.7881,368.2561,524.6526,362.07,520.9469" style="stroke:#181818;stroke-width:1;"/><polygon fill="#000000" points="396.9023,563.1947,394.0451,554.1235,389.2588,557.5354,396.9023,563.1947" style="stroke:#000000;stroke-width:1;"/><text fill="#000000" font-family="sans-serif" font-size="13" lengthAdjust="spacing" textLength="71.8237" x="403" y="563.6238">has history</text><text fill="#000000" font-family="sans-serif" font-size="13" lengthAdjust="spacing" textLength="8.271" x="356.2563" y="540.5104">1</text><text fill="#000000" font-family="sans-serif" font-size="13" lengthAdjust="spacing" textLength="23.0356" x="381.7022" y="586.5407">0..*</text></g><!--link Schedule to ScheduleStatus--><g class="link" data-entity-1="ent0004" data-entity-2="ent0006" data-link-type="dependency" data-source-line="43" id="lnk10"><path codeLine="43" d="M325.25,520.9069 C319.3,553.3069 313.2912,586.0651 307.8412,615.8151" fill="none" id="Schedule-to-ScheduleStatus" style="stroke:#181818;stroke-width:1;stroke-dasharray:7,7;"/><polygon fill="#181818" points="306.76,621.7169,312.3163,613.585,307.661,616.7987,304.4472,612.1434,306.76,621.7169" style="stroke:#181818;stroke-width:1;"/></g><!--link Run to RunStatus--><g class="link" data-entity-1="ent0005" data-entity-2="ent0007" data-link-type="dependency" data-source-line="44" id="lnk11"><path codeLine="44" d="M498,743.4769 C498,764.3069 498,780.2569 498,798.2869" fill="none" id="Run-to-RunStatus" style="stroke:#181818;stroke-width:1;stroke-dasharray:7,7;"/><polygon fill="#181818" points="498,804.2869,502,795.2869,498,799.2869,494,795.2869,498,804.2869" style="stroke:#181818;stroke-width:1;"/></g><!--reverse link SchedulingStrategy to IntervalStrategy--><g class="link" data-entity-1="ent0013" data-entity-2="ent0014" data-link-type="extension" data-source-line="100" id="lnk24"><path codeLine="100" d="M1239.0247,715.1599 C1204.9247,746.2299 1166.47,781.2569 1132.45,812.2569" fill="none" id="SchedulingStrategy-backto-IntervalStrategy" style="stroke:#181818;stroke-width:1;stroke-dasharray:7,7;"/><polygon fill="none" points="1252.33,703.0369,1234.9837,710.7248,1243.0657,719.595,1252.33,703.0369" style="stroke:#181818;stroke-width:1;"/></g><!--reverse link SchedulingStrategy to WindowStrategy--><g class="link" data-entity-1="ent0013" data-entity-2="ent0015" data-link-type="extension" data-source-line="101" id="lnk25"><path codeLine="101" d="M1347.883,713.2195 C1393.173,744.2895 1447.07,781.2569 1492.25,812.2569" fill="none" id="SchedulingStrategy-backto-WindowStrategy" style="stroke:#181818;stroke-width:1;stroke-dasharray:7,7;"/><polygon fill="none" points="1333.04,703.0369,1344.4888,718.1672,1351.2772,708.2718,1333.04,703.0369" style="stroke:#181818;stroke-width:1;"/></g><!--reverse link ScheduleContext to SchedulingStrategy--><g class="link" data-entity-1="ent0016" data-entity-2="ent0013" data-link-type="aggregation" data-source-line="102" id="lnk26"><path codeLine="102" d="M1287,508.3169 C1287,549.2669 1287,600.4669 1287,638.1169" fill="none" id="ScheduleContext-backto-SchedulingStrategy" style="stroke:#181818;stroke-width:1;"/><polygon fill="none" points="1287,496.3169,1283,502.3169,1287,508.3169,1291,502.3169,1287,496.3169" style="stroke:#181818;stroke-width:1;"/><polygon fill="#000000" points="1292,564.1233,1294.9389,555.0782,1289.0611,555.0782,1292,564.1233" style="stroke:#000000;stroke-width:1;"/><text fill="#000000" font-family="sans-serif" font-size="13" lengthAdjust="spacing" textLength="29.7832" x="1301" y="563.6238">uses</text></g><!--reverse link JobObserver to DatabaseLoggerObserver--><g class="link" data-entity-1="ent0017" data-entity-2="ent0018" data-link-type="extension" data-source-line="104" id="lnk27"><path codeLine="104" d="M793.7077,720.2102 C784.7777,748.6502 777.02,773.4169 767.4,804.0869" fill="none" id="JobObserver-backto-DatabaseLoggerObserver" style="stroke:#181818;stroke-width:1;stroke-dasharray:7,7;"/><polygon fill="none" points="799.1,703.0369,787.9832,718.4128,799.4321,722.0076,799.1,703.0369" style="stroke:#181818;stroke-width:1;"/></g><!--reverse link JobExecutor to JobObserver--><g class="link" data-entity-1="ent0019" data-entity-2="ent0017" data-link-type="aggregation" data-source-line="105" id="lnk28"><path codeLine="105" d="M821.9484,516.4942 C818.4984,557.2742 814.64,602.8069 811.66,638.0269" fill="none" id="JobExecutor-backto-JobObserver" style="stroke:#181818;stroke-width:1;"/><polygon fill="none" points="822.96,504.5369,818.4684,510.1783,821.9484,516.4942,826.44,510.8527,822.96,504.5369" style="stroke:#181818;stroke-width:1;"/><polygon fill="#000000" points="822.5782,564.1055,826.2697,555.3405,820.4128,554.8447,822.5782,564.1055" style="stroke:#000000;stroke-width:1;"/><text fill="#000000" font-family="sans-serif" font-size="13" lengthAdjust="spacing" textLength="47.8613" x="832" y="563.6238">notifies</text></g><!--link Engine to JobExecutor--><g class="link" data-entity-1="ent0021" data-entity-2="ent0019" data-link-type="dependency" data-source-line="107" id="lnk29"><path codeLine="107" d="M709.3,226.7669 C732.52,271.7669 772.5783,349.3651 799.6683,401.8551" fill="none" id="Engine-to-JobExecutor" style="stroke:#181818;stroke-width:1;"/><polygon fill="#181818" points="802.42,407.1869,801.8469,397.3547,800.1269,402.7437,794.7379,401.0237,802.42,407.1869" style="stroke:#181818;stroke-width:1;"/><text fill="#000000" font-family="sans-serif" font-size="13" lengthAdjust="spacing" textLength="68.9229" x="765" y="336.1438">1. Execute</text></g><!--link Engine to ScheduleContext--><g class="link" data-entity-1="ent0021" data-entity-2="ent0016" data-link-type="dependency" data-source-line="108" id="lnk30"><path codeLine="108" d="M765.24,226.7669 C873.53,274.0969 1072.3321,360.9942 1190.6121,412.6842" fill="none" id="Engine-to-ScheduleContext" style="stroke:#181818;stroke-width:1;"/><polygon fill="#181818" points="1196.11,415.0869,1189.4649,407.8176,1191.5284,413.0847,1186.2613,415.1482,1196.11,415.0869" style="stroke:#181818;stroke-width:1;"/><text fill="#000000" font-family="sans-serif" font-size="13" lengthAdjust="spacing" textLength="127.9053" x="1008" y="336.1438">2. Update Next Run</text></g><!--link Engine to Schedule--><g class="link" data-entity-1="ent0021" data-entity-2="ent0004" data-link-type="dependency" data-source-line="109" id="lnk31"><path codeLine="109" d="M676.21,226.6769 C659.88,254.2169 632.52,293.1469 598,315.0769 C571.02,332.2169 486.39,333.3969 458,348.0769 C436.6,359.1469 420.4141,370.8415 402.3941,386.7815" fill="none" id="Engine-to-Schedule" style="stroke:#181818;stroke-width:1;stroke-dasharray:7,7;"/><polygon fill="#181818" points="397.9,390.7569,407.2913,387.7899,401.6451,387.4441,401.9909,381.7978,397.9,390.7569" style="stroke:#181818;stroke-width:1;"/><text fill="#000000" font-family="sans-serif" font-size="13" lengthAdjust="spacing" textLength="109.5415" x="576" y="336.1438">Queries due jobs</text></g><!--link API to Schedule--><g class="link" data-entity-1="ent0023" data-entity-2="ent0004" data-link-type="dependency" data-source-line="111" id="lnk32"><path codeLine="111" d="M421.08,251.3169 C397.98,271.3969 374.99,295.8669 360,323.0769 C348.74,343.5169 343.5978,362.2629 340.5078,384.7229" fill="none" id="API-to-Schedule" style="stroke:#181818;stroke-width:1;stroke-dasharray:7,7;"/><polygon fill="#181818" points="339.69,390.6669,344.8793,382.296,340.3715,385.7135,336.954,381.2057,339.69,390.6669" style="stroke:#181818;stroke-width:1;"/><text fill="#000000" font-family="sans-serif" font-size="13" lengthAdjust="spacing" textLength="113.2358" x="361" y="336.1438">CRUD Operations</text></g><!--link API to Run--><g class="link" data-entity-1="ent0023" data-entity-2="ent0005" data-link-type="dependency" data-source-line="112" id="lnk33"><path codeLine="112" d="M500.54,267.4769 C499.98,356.8069 499.0576,501.907 498.4976,591.217" fill="none" id="API-to-Run" style="stroke:#181818;stroke-width:1;stroke-dasharray:7,7;"/><polygon fill="#181818" points="498.46,597.2169,502.5164,588.2421,498.4914,592.217,494.5165,588.192,498.46,597.2169" style="stroke:#181818;stroke-width:1;"/><text fill="#000000" font-family="sans-serif" font-size="13" lengthAdjust="spacing" textLength="108.8496" x="500" y="460.3838">Read Operations</text></g><?plantuml-src jLPDRzim3BtxLn2vDEaQOzlH60e4QGQqIDSsJhQZeTYieysH34dU6cpxxwFygJXkYnwMWsEH5Fb8FL8st6G8i_jh2ECT9aM62cOgtd63iIaKUbxEuXyiHHXTCSDWoGvaCGuVbhECDkmFS2iJpFHa1Byze5-SCQrXpLIAfXRPtpkU170j3AQeEc6XiW12exX8E-4UpKucf_8TiWIL3k0clFlIYRSoEKG6ztd630QmnYTJAlzw3fuckLSHwTemCeSSJp6qwbYAHvxsiMZ3J448ct1XkUxqWi15gX0HCm5GFN7DztYATbM8Lu7Y4yQ5mUJKrH4ISjK7KQaeWmG7_DegYlWGxVM0Kg7EfT0OsQ8VrTe-omUAOj_BtybbDbzVVrsqo_lP9bnSjSlvtUtzSh6k9NL9IeTj6ewlS3EVByAmNN-UNIytguMxzmnMI0bnmhpZULM3bWgZ3oCudqxB_vgl0MmnaoBLO2HSFcF-tlVFH-KP1R1Z6dPS6waEVNlVlnpYWTrdLTt1_7LwR2uLmbAcF8Rn5MgU2hXdng0ILOVLMH4jwPZIGwCinPnEIpso69kmnDpMqA5JpBAuiCSSDNGSDxJkc7i1nCIAguQ8rL7i0f8jcQ7MLDK9l4HZIn_rasLl1D65jh5U3l6DYqJ--ey1cdhC9INpv4wqQQIhi1ofLMvPtiKcAhrSssGRwQg2hvRo3Ewscif8KtVui6_ajhLmyfU2Efo68XeS4uno4anEyxD3VSiq4kUeqmSSJPtZVhDtmhOevvGySYdhC5It9JNF9oU5oou6IvAeiHpJI-2cEZcPXAyKsjQNGDOOtPuBoI6dGjPNsvvnuUU7teKswgx7XKYvm15GwrUlRjbjmpH0r7ZIduwrCtlVBaIIIpf6NNgo4fUz2YrrJJcMnfCJHHF2LUMiqCCQ6jl5VbYLyQeJj2kq_ALRMF5OjobGnSxgoKIz8EZhm4vLRs3KVFhZ-oUz_wpXSGTx_NwJD747jWP0kMeQkPvB_zBXCACzbuhMgRil024DV-ILn_fGfzFB8_u6yC67QeMkJHzn01zzsEG90OKlLc1PLzkxTm8PFXIeRD2aGFXE3FSyIuEUqNorkOAx75LrZxKcrGMqeeyYH_iF?></g></svg>
